<svg xmlns="http://www.w3.org/2000/svg" xmlns:xlink="http://www.w3.org/1999/xlink" width="200" zoomAndPan="magnify" viewBox="0 0 150 149.999998" height="200" preserveAspectRatio="xMidYMid meet" version="1.0"><defs><clipPath id="32321ee9c3"><path d="M 3.9375 9 L 66 9 L 66 141 L 3.9375 141 Z M 3.9375 9 " clip-rule="nonzero"/></clipPath><clipPath id="ef643529b0"><path d="M 43.234375 69.796875 L 45 69.796875 L 45 71.296875 L 43.234375 71.296875 Z M 43.234375 69.796875 " clip-rule="nonzero"/></clipPath><clipPath id="fcd876f76b"><path d="M 43.234375 69.796875 L 45.484375 69.796875 L 45.484375 71.296875 L 43.234375 71.296875 Z M 43.234375 69.796875 " clip-rule="nonzero"/></clipPath><clipPath id="7e97d1706c"><path d="M 44.933594 70.460938 L 45.167969 70.460938 L 45.167969 70.933594 L 44.933594 70.933594 Z M 44.933594 70.460938 " clip-rule="nonzero"/></clipPath><clipPath id="9f9c0f4682"><path d="M 43.234375 70 L 44 70 L 44 71 L 43.234375 71 Z M 43.234375 70 " clip-rule="nonzero"/></clipPath><clipPath id="7d407f542c"><path d="M 43.234375 69.796875 L 45 69.796875 L 45 71 L 43.234375 71 Z M 43.234375 69.796875 " clip-rule="nonzero"/></clipPath><clipPath id="3b74f77740"><path d="M 43.234375 70 L 44 70 L 44 71 L 43.234375 71 Z M 43.234375 70 " clip-rule="nonzero"/></clipPath><clipPath id="5d9476495a"><path d="M 43.234375 70 L 45 70 L 45 71 L 43.234375 71 Z M 43.234375 70 " clip-rule="nonzero"/></clipPath></defs><g clip-path="url(#32321ee9c3)"><path fill="#ffffff" d="M 49.960938 70.964844 L 65.753906 80.101562 L 65.753906 17.492188 L 51.828125 9.441406 L 37.285156 17.816406 L 37.285156 34.695312 L 33.351562 36.96875 L 33.351562 20.089844 L 20.53125 27.503906 L 20.53125 45.34375 L 35.359375 53.882812 L 49.921875 45.46875 L 49.921875 29.695312 L 53.855469 27.421875 L 53.855469 47.742188 L 37.285156 57.304688 L 37.285156 74.078125 L 33.351562 76.351562 L 33.351562 57.285156 L 18.871094 48.90625 L 3.964844 57.507812 L 3.964844 71.96875 L 20.53125 62.40625 L 20.53125 66.949219 L 3.964844 76.515625 L 3.964844 92.816406 L 18.871094 101.421875 L 31.183594 94.3125 L 19.507812 87.554688 L 19.507812 83.027344 L 53.855469 102.855469 L 53.855469 126.242188 L 49.921875 123.96875 L 49.921875 105.128906 L 35.113281 96.585938 L 20.53125 105.003906 L 20.53125 122.289062 L 33.351562 129.683594 L 33.351562 110.328125 L 37.285156 112.601562 L 37.285156 131.957031 L 52.175781 140.558594 L 65.753906 132.714844 L 65.753906 84.644531 L 49.960938 75.511719 Z M 49.960938 70.964844 " fill-opacity="1" fill-rule="evenodd"/></g><path fill="#7ed957" d="M 69.808594 22.363281 L 69.808594 132.285156 L 73.84375 134.640625 L 80.152344 138.265625 C 79.125 141.828125 80.621094 145.78125 83.980469 147.707031 C 87.953125 150 93.011719 148.648438 95.304688 144.675781 C 97.578125 140.722656 96.226562 135.644531 92.277344 133.347656 C 88.917969 131.425781 84.757812 132.101562 82.179688 134.761719 L 73.84375 129.949219 L 73.84375 20.03125 L 82.179688 15.21875 C 84.757812 17.898438 88.917969 18.574219 92.277344 16.628906 C 96.226562 14.335938 97.578125 9.277344 95.304688 5.304688 C 93.011719 1.351562 87.953125 0 83.980469 2.273438 C 80.621094 4.21875 79.125 8.152344 80.152344 11.714844 L 73.84375 15.359375 L 69.808594 17.695312 Z M 86.4375 143.445312 C 84.839844 142.503906 84.289062 140.457031 85.230469 138.859375 C 86.152344 137.261719 88.199219 136.707031 89.796875 137.628906 C 91.414062 138.550781 91.949219 140.597656 91.027344 142.21875 C 90.105469 143.816406 88.054688 144.367188 86.4375 143.445312 Z M 85.230469 11.140625 C 84.289062 9.523438 84.839844 7.476562 86.4375 6.554688 C 88.054688 5.632812 90.105469 6.183594 91.027344 7.78125 C 91.949219 9.378906 91.414062 11.429688 89.796875 12.351562 C 88.199219 13.292969 86.152344 12.738281 85.230469 11.140625 Z M 85.230469 11.140625 " fill-opacity="1" fill-rule="evenodd"/><path fill="#7ed957" d="M 88.199219 52.800781 L 78.207031 52.800781 L 78.207031 56.832031 L 89.878906 56.832031 L 93.933594 52.800781 L 98.890625 47.84375 L 120.578125 47.84375 L 129.816406 57.078125 C 127.910156 60.253906 128.320312 64.453125 131.066406 67.195312 C 134.300781 70.433594 139.566406 70.433594 142.800781 67.195312 C 146.035156 63.960938 146.035156 58.71875 142.800781 55.480469 C 140.058594 52.738281 135.859375 52.308594 132.683594 54.210938 L 126.292969 47.84375 L 122.257812 43.789062 L 97.210938 43.789062 L 93.175781 47.84375 Z M 134.566406 58.964844 C 135.878906 57.652344 137.988281 57.652344 139.300781 58.964844 C 140.609375 60.273438 140.609375 62.40625 139.300781 63.695312 C 137.988281 65.003906 135.878906 65.003906 134.566406 63.695312 C 133.257812 62.40625 133.257812 60.273438 134.566406 58.964844 Z M 134.566406 58.964844 " fill-opacity="1" fill-rule="evenodd"/><path fill="#ffffff" d="M 78.207031 36.332031 L 83.570312 36.332031 L 87.605469 32.296875 L 92.378906 27.527344 L 98.828125 27.527344 C 99.75 31.128906 103.007812 33.792969 106.878906 33.792969 C 111.445312 33.792969 115.171875 30.085938 115.171875 25.5 C 115.171875 20.929688 111.445312 17.222656 106.878906 17.222656 C 103.007812 17.222656 99.75 19.886719 98.828125 23.472656 L 90.699219 23.472656 L 86.644531 27.527344 L 81.890625 32.296875 L 78.207031 32.296875 Z M 103.519531 25.5 C 103.519531 23.65625 105.035156 22.160156 106.878906 22.160156 C 108.722656 22.160156 110.238281 23.65625 110.238281 25.5 C 110.238281 27.363281 108.722656 28.855469 106.878906 28.855469 C 105.035156 28.855469 103.519531 27.363281 103.519531 25.5 Z M 103.519531 25.5 " fill-opacity="1" fill-rule="evenodd"/><path fill="#7ed957" d="M 84.164062 93.144531 L 78.207031 93.144531 L 78.207031 97.199219 L 88.199219 97.199219 L 93.175781 102.15625 L 97.210938 106.191406 L 122.257812 106.191406 L 132.683594 95.765625 C 135.859375 97.671875 140.058594 97.261719 142.800781 94.519531 C 146.035156 91.28125 146.035156 86.039062 142.800781 82.804688 C 139.566406 79.566406 134.300781 79.566406 131.066406 82.804688 C 128.320312 85.546875 127.910156 89.726562 129.816406 92.898438 L 120.578125 102.15625 L 98.890625 102.15625 L 89.878906 93.144531 Z M 139.300781 91.035156 C 137.988281 92.347656 135.878906 92.347656 134.566406 91.035156 C 133.257812 89.726562 133.257812 87.59375 134.566406 86.285156 C 135.878906 84.972656 137.988281 84.972656 139.300781 86.285156 C 140.609375 87.59375 140.609375 89.726562 139.300781 91.035156 Z M 139.300781 91.035156 " fill-opacity="1" fill-rule="evenodd"/><path fill="#ffffff" d="M 78.207031 77.027344 L 106.101562 77.027344 C 107 80.613281 110.257812 83.273438 114.128906 83.273438 C 118.714844 83.273438 122.421875 79.566406 122.421875 75 C 122.421875 70.414062 118.714844 66.707031 114.128906 66.707031 C 110.257812 66.707031 107 69.367188 106.101562 72.972656 L 78.207031 72.972656 Z M 110.789062 75 C 110.789062 73.136719 112.285156 71.640625 114.128906 71.640625 C 115.992188 71.640625 117.488281 73.136719 117.488281 75 C 117.488281 76.84375 115.992188 78.339844 114.128906 78.339844 C 112.285156 78.339844 110.789062 76.84375 110.789062 75 Z M 110.789062 75 " fill-opacity="1" fill-rule="evenodd"/><path fill="#ffffff" d="M 87.605469 117.703125 L 83.570312 113.648438 L 78.207031 113.648438 L 78.207031 117.703125 L 81.890625 117.703125 L 86.644531 122.453125 L 90.699219 126.507812 L 98.828125 126.507812 C 99.75 130.113281 103.007812 132.777344 106.878906 132.777344 C 111.445312 132.777344 115.171875 129.070312 115.171875 124.480469 C 115.171875 119.914062 111.445312 116.207031 106.878906 116.207031 C 103.007812 116.207031 99.75 118.871094 98.828125 122.453125 L 92.378906 122.453125 Z M 106.878906 127.839844 C 105.035156 127.839844 103.519531 126.34375 103.519531 124.480469 C 103.519531 122.636719 105.035156 121.144531 106.878906 121.144531 C 108.722656 121.144531 110.238281 122.636719 110.238281 124.480469 C 110.238281 126.34375 108.722656 127.839844 106.878906 127.839844 Z M 106.878906 127.839844 " fill-opacity="1" fill-rule="evenodd"/><g clip-path="url(#ef643529b0)"><path fill="#ffffff" d="M 43.890625 71.179688 L 43.910156 71.1875 C 43.996094 71.238281 44.097656 71.261719 44.199219 71.261719 C 44.359375 71.261719 44.511719 71.199219 44.625 71.085938 C 44.738281 70.972656 44.800781 70.820312 44.800781 70.660156 C 44.800781 70.5 44.738281 70.347656 44.625 70.234375 C 44.511719 70.121094 44.359375 70.058594 44.199219 70.058594 C 44.039062 70.058594 43.886719 70.121094 43.773438 70.234375 C 43.660156 70.347656 43.597656 70.5 43.597656 70.660156 C 43.597656 70.761719 43.621094 70.859375 43.667969 70.949219 L 43.679688 70.96875 L 43.601562 71.253906 Z M 44.199219 71.324219 C 44.089844 71.324219 43.980469 71.296875 43.882812 71.242188 L 43.609375 71.316406 C 43.605469 71.316406 43.597656 71.316406 43.59375 71.316406 C 43.578125 71.316406 43.5625 71.308594 43.550781 71.296875 C 43.539062 71.28125 43.539062 71.265625 43.542969 71.25 L 43.617188 70.976562 C 43.5625 70.878906 43.535156 70.769531 43.535156 70.660156 C 43.535156 70.484375 43.605469 70.316406 43.730469 70.191406 C 43.855469 70.066406 44.023438 69.996094 44.199219 69.996094 C 44.375 69.996094 44.542969 70.066406 44.667969 70.191406 C 44.792969 70.316406 44.863281 70.484375 44.863281 70.660156 C 44.863281 70.835938 44.792969 71.003906 44.667969 71.128906 C 44.542969 71.253906 44.375 71.324219 44.199219 71.324219 " fill-opacity="1" fill-rule="nonzero"/></g><g clip-path="url(#fcd876f76b)"><path fill="#ffffff" d="M 44.796875 70.078125 C 44.636719 69.917969 44.425781 69.828125 44.199219 69.828125 C 43.972656 69.828125 43.761719 69.917969 43.601562 70.078125 C 43.441406 70.238281 43.351562 70.449219 43.351562 70.675781 C 43.351562 70.753906 43.363281 70.832031 43.382812 70.902344 L 43.4375 70.890625 C 43.417969 70.820312 43.40625 70.75 43.40625 70.675781 C 43.40625 70.238281 43.761719 69.882812 44.199219 69.882812 C 44.636719 69.882812 44.992188 70.238281 44.992188 70.675781 C 44.992188 71.113281 44.636719 71.464844 44.199219 71.464844 L 44.199219 71.519531 C 44.425781 71.519531 44.636719 71.433594 44.796875 71.273438 C 44.957031 71.113281 45.042969 70.902344 45.042969 70.675781 C 45.042969 70.449219 44.957031 70.238281 44.796875 70.078125 " fill-opacity="1" fill-rule="nonzero"/></g><g clip-path="url(#7e97d1706c)"><path fill="#ffffff" d="M 45.152344 70.601562 L 45.152344 70.597656 C 45.152344 70.542969 45.117188 70.496094 45.0625 70.488281 L 45.011719 70.484375 C 45.011719 70.480469 45.011719 70.476562 45.007812 70.476562 C 45.007812 70.472656 45.003906 70.46875 45 70.464844 C 44.992188 70.460938 44.984375 70.460938 44.972656 70.460938 C 44.953125 70.464844 44.941406 70.480469 44.941406 70.5 C 44.953125 70.628906 44.949219 70.757812 44.933594 70.886719 C 44.933594 70.90625 44.945312 70.925781 44.964844 70.925781 C 44.96875 70.925781 44.972656 70.925781 44.976562 70.925781 C 44.992188 70.925781 45.003906 70.914062 45.007812 70.902344 C 45.011719 70.902344 45.015625 70.902344 45.015625 70.902344 C 45.027344 70.902344 45.050781 70.902344 45.054688 70.902344 C 45.054688 70.902344 45.058594 70.902344 45.058594 70.902344 C 45.109375 70.894531 45.152344 70.847656 45.152344 70.796875 L 45.152344 70.789062 C 45.160156 70.777344 45.167969 70.761719 45.167969 70.746094 L 45.167969 70.648438 C 45.167969 70.632812 45.164062 70.617188 45.152344 70.601562 " fill-opacity="1" fill-rule="nonzero"/></g><g clip-path="url(#9f9c0f4682)"><path fill="#ffffff" d="M 43.25 70.601562 L 43.25 70.597656 C 43.25 70.542969 43.289062 70.496094 43.339844 70.488281 L 43.390625 70.484375 C 43.394531 70.480469 43.394531 70.476562 43.394531 70.476562 C 43.398438 70.472656 43.402344 70.46875 43.40625 70.464844 C 43.414062 70.460938 43.421875 70.460938 43.429688 70.460938 C 43.449219 70.464844 43.464844 70.480469 43.464844 70.5 C 43.453125 70.628906 43.453125 70.757812 43.46875 70.886719 C 43.472656 70.90625 43.457031 70.925781 43.4375 70.925781 C 43.433594 70.925781 43.433594 70.925781 43.429688 70.925781 C 43.414062 70.925781 43.402344 70.914062 43.398438 70.902344 C 43.394531 70.902344 43.386719 70.902344 43.386719 70.902344 C 43.378906 70.902344 43.355469 70.902344 43.347656 70.902344 C 43.292969 70.894531 43.253906 70.847656 43.253906 70.796875 L 43.253906 70.789062 C 43.242188 70.777344 43.238281 70.761719 43.238281 70.746094 L 43.234375 70.648438 C 43.234375 70.632812 43.242188 70.617188 43.25 70.601562 " fill-opacity="1" fill-rule="nonzero"/></g><g clip-path="url(#7d407f542c)"><path fill="#ffffff" d="M 44.742188 70.007812 C 44.738281 69.992188 44.730469 69.976562 44.71875 69.96875 C 44.566406 69.855469 44.386719 69.796875 44.199219 69.796875 C 44.011719 69.796875 43.832031 69.855469 43.679688 69.96875 C 43.667969 69.976562 43.660156 69.992188 43.65625 70.007812 C 43.65625 70.023438 43.660156 70.039062 43.671875 70.050781 C 43.683594 70.066406 43.699219 70.074219 43.714844 70.074219 C 43.730469 70.074219 43.742188 70.070312 43.75 70.0625 C 43.882812 69.964844 44.035156 69.914062 44.199219 69.914062 C 44.363281 69.914062 44.515625 69.964844 44.648438 70.0625 C 44.65625 70.070312 44.667969 70.074219 44.683594 70.074219 C 44.699219 70.074219 44.714844 70.066406 44.726562 70.050781 C 44.738281 70.039062 44.742188 70.023438 44.742188 70.007812 " fill-opacity="1" fill-rule="nonzero"/></g><g clip-path="url(#3b74f77740)"><path fill="#ffffff" d="M 43.949219 70.75 L 43.851562 70.75 L 43.933594 70.660156 C 43.941406 70.648438 43.949219 70.636719 43.957031 70.625 C 43.964844 70.613281 43.96875 70.601562 43.96875 70.589844 C 43.96875 70.570312 43.964844 70.550781 43.957031 70.539062 C 43.949219 70.523438 43.9375 70.511719 43.925781 70.503906 C 43.910156 70.496094 43.894531 70.492188 43.878906 70.492188 C 43.859375 70.492188 43.84375 70.496094 43.828125 70.507812 C 43.816406 70.515625 43.804688 70.527344 43.796875 70.539062 C 43.789062 70.554688 43.785156 70.570312 43.785156 70.589844 C 43.785156 70.59375 43.785156 70.601562 43.789062 70.605469 C 43.796875 70.609375 43.800781 70.613281 43.808594 70.613281 C 43.816406 70.613281 43.820312 70.609375 43.824219 70.605469 C 43.828125 70.601562 43.832031 70.59375 43.832031 70.589844 C 43.832031 70.578125 43.832031 70.570312 43.835938 70.5625 C 43.839844 70.554688 43.847656 70.550781 43.855469 70.542969 C 43.863281 70.539062 43.871094 70.539062 43.878906 70.539062 C 43.890625 70.539062 43.902344 70.542969 43.910156 70.550781 C 43.917969 70.558594 43.921875 70.574219 43.921875 70.589844 C 43.921875 70.601562 43.914062 70.617188 43.898438 70.632812 L 43.789062 70.757812 C 43.785156 70.761719 43.785156 70.769531 43.785156 70.777344 C 43.785156 70.78125 43.785156 70.789062 43.789062 70.792969 C 43.796875 70.796875 43.800781 70.800781 43.808594 70.800781 L 43.949219 70.800781 C 43.953125 70.800781 43.960938 70.796875 43.964844 70.792969 C 43.96875 70.789062 43.972656 70.78125 43.972656 70.777344 C 43.972656 70.769531 43.96875 70.761719 43.964844 70.757812 C 43.960938 70.753906 43.953125 70.75 43.949219 70.75 " fill-opacity="1" fill-rule="nonzero"/></g><g clip-path="url(#5d9476495a)"><path fill="#ffffff" d="M 44.136719 70.578125 L 44.136719 70.6875 L 44.054688 70.6875 Z M 44.21875 70.695312 C 44.214844 70.691406 44.207031 70.6875 44.199219 70.6875 L 44.183594 70.6875 L 44.183594 70.519531 C 44.183594 70.511719 44.179688 70.503906 44.175781 70.5 C 44.171875 70.496094 44.167969 70.492188 44.160156 70.492188 C 44.152344 70.492188 44.144531 70.496094 44.140625 70.503906 L 43.996094 70.695312 C 43.992188 70.699219 43.992188 70.703125 43.992188 70.707031 C 43.992188 70.714844 43.992188 70.71875 43.996094 70.726562 C 44 70.730469 44.007812 70.730469 44.015625 70.730469 L 44.136719 70.730469 L 44.136719 70.777344 C 44.136719 70.78125 44.136719 70.789062 44.144531 70.792969 C 44.148438 70.796875 44.152344 70.800781 44.160156 70.800781 C 44.164062 70.800781 44.171875 70.796875 44.175781 70.792969 C 44.179688 70.789062 44.183594 70.78125 44.183594 70.777344 L 44.183594 70.730469 L 44.199219 70.730469 C 44.207031 70.730469 44.210938 70.730469 44.21875 70.726562 C 44.222656 70.722656 44.222656 70.714844 44.222656 70.710938 C 44.222656 70.703125 44.222656 70.695312 44.21875 70.695312 " fill-opacity="1" fill-rule="nonzero"/></g><path fill="#ffffff" d="M 44.382812 70.492188 C 44.378906 70.492188 44.375 70.496094 44.371094 70.496094 C 44.367188 70.5 44.363281 70.503906 44.363281 70.507812 L 44.246094 70.792969 C 44.246094 70.796875 44.246094 70.800781 44.246094 70.804688 C 44.246094 70.808594 44.246094 70.816406 44.253906 70.820312 C 44.257812 70.824219 44.261719 70.828125 44.269531 70.828125 C 44.273438 70.828125 44.277344 70.824219 44.28125 70.824219 C 44.285156 70.820312 44.289062 70.816406 44.289062 70.8125 L 44.40625 70.527344 C 44.40625 70.523438 44.40625 70.519531 44.40625 70.515625 C 44.40625 70.511719 44.40625 70.503906 44.398438 70.5 C 44.394531 70.496094 44.390625 70.492188 44.382812 70.492188 " fill-opacity="1" fill-rule="nonzero"/><path fill="#ffffff" d="M 44.605469 70.5 C 44.601562 70.496094 44.597656 70.492188 44.589844 70.492188 L 44.445312 70.492188 C 44.4375 70.492188 44.433594 70.496094 44.429688 70.5 C 44.425781 70.503906 44.421875 70.511719 44.421875 70.515625 C 44.421875 70.523438 44.425781 70.53125 44.429688 70.535156 C 44.433594 70.539062 44.4375 70.539062 44.445312 70.539062 L 44.554688 70.539062 L 44.449219 70.761719 C 44.445312 70.765625 44.445312 70.769531 44.445312 70.777344 C 44.445312 70.78125 44.445312 70.789062 44.453125 70.792969 C 44.457031 70.796875 44.460938 70.800781 44.46875 70.800781 C 44.472656 70.800781 44.476562 70.796875 44.480469 70.796875 C 44.484375 70.792969 44.488281 70.789062 44.488281 70.785156 L 44.609375 70.53125 C 44.613281 70.523438 44.613281 70.519531 44.613281 70.515625 C 44.613281 70.511719 44.613281 70.503906 44.605469 70.5 " fill-opacity="1" fill-rule="nonzero"/></svg>